<?xml version="1.0" encoding="utf-8"?>
<!-- Generator: Adobe Illustrator 23.0.0, SVG Export Plug-In . SVG Version: 6.00 Build 0)  -->
<svg version="1.1" id="Layer_1" xmlns="http://www.w3.org/2000/svg" xmlns:xlink="http://www.w3.org/1999/xlink" x="0px" y="0px"
	 viewBox="0 0 512 512" style="enable-background:new 0 0 512 512;" xml:space="preserve">
<g>
	<circle style="fill:#1F3A93;" cx="147.548" cy="431.16" r="75.328"/>
	<path style="fill:#354E9E;" d="M94.283,484.424c-29.417-29.417-29.417-77.112,0-106.529c29.417-29.417,77.112-29.417,106.529,0"/>
	<circle style="fill:#1F3A93;" cx="356.933" cy="431.16" r="75.328"/>
	<path style="fill:#354E9E;" d="M303.668,484.424c-29.417-29.417-29.417-77.112,0-106.529c29.417-29.417,77.112-29.417,106.529,0"/>
	<path style="fill:#1F3A93;" d="M503.577,94.038c-8.625-12.227-22.708-19.529-37.674-19.529H81.337L56.787,5.513L0,25.72
		l17.362,48.789h-0.006l63.603,178.738l12.674,35.615l0,0l7.13,20.035h256.168c54.38,0,103.164-34.418,121.382-85.647l31.022-87.175
		C514.353,121.981,512.202,106.265,503.577,94.038z M421.521,203.049c-9.692,27.254-35.651,45.572-64.589,45.572H143.289
		l-26.281-73.868l-14.222-39.967h343.026L421.521,203.049z"/>
</g>
</svg>
