<?xml version="1.0" encoding="utf-8"?>
<!-- Generator: Adobe Illustrator 23.0.0, SVG Export Plug-In . SVG Version: 6.00 Build 0)  -->
<svg version="1.1" id="Layer_1" xmlns="http://www.w3.org/2000/svg" xmlns:xlink="http://www.w3.org/1999/xlink" x="0px" y="0px"
	 viewBox="0 0 512 512" style="enable-background:new 0 0 512 512;" xml:space="preserve">
<path style="fill:#FFFFFF;" d="M200.813,377.895c29.417,29.417,29.417,77.112,0,106.529c-29.418,29.417-77.112,29.417-106.53,0
	c-29.417-29.417-29.417-77.112,0-106.529C123.701,348.478,171.395,348.478,200.813,377.895z M303.668,377.895
	c-29.417,29.417-29.417,77.112,0,106.529s77.112,29.417,106.529,0s29.417-77.112,0-106.529S333.085,348.478,303.668,377.895z
	 M509.334,136.075l-31.021,87.175c-18.218,51.229-67.002,85.647-121.382,85.647H100.763l-7.13-20.035l-12.674-35.615L17.356,74.509
	h0.006L0,25.72L56.787,5.513l24.55,68.996h384.566c14.967,0,29.049,7.303,37.674,19.529
	C512.203,106.265,514.353,121.981,509.334,136.075z M445.812,134.786H102.786l14.222,39.967l26.282,73.868h213.642
	c28.938,0,54.897-18.318,64.589-45.572L445.812,134.786z"/>
</svg>
