<?xml version="1.0" encoding="utf-8"?>
<!-- Generator: Adobe Illustrator 23.0.0, SVG Export Plug-In . SVG Version: 6.00 Build 0)  -->
<svg version="1.1" id="Layer_1" xmlns="http://www.w3.org/2000/svg" xmlns:xlink="http://www.w3.org/1999/xlink" x="0px" y="0px"
	 viewBox="0 0 512 512" style="enable-background:new 0 0 512 512;" xml:space="preserve">
<path style="fill-rule:evenodd;clip-rule:evenodd;" d="M319.157,253.018l-63.008-63.001l178.34-178.34
	c13.092-13.389,36.527-11.264,52.056,4.258l6.687,6.695c15.529,15.522,17.654,38.957,4.265,52.041L319.157,253.018z
	 M503.278,437.146L319.157,253.018l-63.008,63.306l183.824,184.129c13.389,13.085,36.527,11.257,52.041-4.265l6.999-6.999
	C514.542,473.666,516.37,450.536,503.278,437.146z M8.722,437.146c-13.092,13.389-11.264,36.52,4.265,52.041l6.999,6.999
	c15.514,15.522,38.652,17.35,52.041,4.265l184.121-184.129l-63.291-63.306L8.722,437.146z M77.511,11.676
	C64.419-1.713,40.984,0.412,25.47,15.934l-6.702,6.695C3.238,38.15,1.113,61.585,14.503,74.67l178.355,178.348l63.291-63.001
	L77.511,11.676z"/>
</svg>
