<?xml version="1.0" encoding="UTF-8"?>
<svg width="17px" height="17px" viewBox="0 0 17 17" version="1.1" xmlns="http://www.w3.org/2000/svg" xmlns:xlink="http://www.w3.org/1999/xlink">
    <!-- Generator: Sketch 51.3 (57544) - http://www.bohemiancoding.com/sketch -->
    <title>Fill 1 Copy</title>
    <desc>Created with Sketch.</desc>
    <defs></defs>
    <g id="Symbols" stroke="none" stroke-width="1" fill="none" fill-rule="evenodd">
        <g id="topbar_mobile_open" transform="translate(-28.000000, -27.000000)" fill="#FFFFFF">
            <path d="M42.2729916,27.2877797 L28.2882464,41.2725249 C27.8541575,41.7066137 27.9178094,42.4742542 28.4289151,42.9853598 L28.6503279,43.2067727 C29.1620964,43.7185412 29.9284111,43.7808673 30.3624999,43.3467784 L44.3472451,29.3620332 C44.7807717,28.9285067 44.7184456,28.162192 44.2066771,27.6504235 L43.9852642,27.4290107 C43.4741586,26.917905 42.7065181,26.8542531 42.2729916,27.2877797 M44.3907128,42.9853598 L44.1693,43.2067727 C43.6575314,43.7185412 42.8912167,43.7808673 42.4576902,43.3473407 L28.472945,29.3625955 C28.0388562,28.9285067 28.1011823,28.162192 28.6129508,27.6504235 L28.8343636,27.4290107 C29.3454692,26.917905 30.1131097,26.8542531 30.5471986,27.288342 L44.5319438,41.2730872 C44.9654703,41.7066137 44.9018184,42.4742542 44.3907128,42.9853598" id="Fill-1-Copy"></path>
        </g>
    </g>
</svg>