<?xml version="1.0" encoding="UTF-8"?>
<svg width="512px" height="512px" viewBox="0 0 512 512" version="1.1" xmlns="http://www.w3.org/2000/svg" xmlns:xlink="http://www.w3.org/1999/xlink">
    <!-- Generator: Sketch 51.3 (57544) - http://www.bohemiancoding.com/sketch -->
    <title>Artboard</title>
    <desc>Created with Sketch.</desc>
    <defs></defs>
    <g id="Artboard" stroke="none" stroke-width="1" fill="none" fill-rule="evenodd">
        <path d="M486.146461,96 L25.8720451,96 C11.5850502,96 0,105.326942 0,116.795956 L0,121.764374 C0,133.248264 11.5850502,142.545455 25.8720451,142.545455 L486.146461,142.545455 C500.41495,142.545455 512,133.248264 512,121.764374 L512,116.795956 C512,105.326942 500.41495,96 486.146461,96 M486.146461,369.076364 L25.8720451,369.076364 C11.5850502,369.076364 0,378.403305 0,389.872319 L0,394.840738 C0,406.324628 11.5850502,415.621818 25.8720451,415.621818 L486.146461,415.621818 C500.41495,415.621818 512,406.324628 512,394.840738 L512,389.872319 C512,378.403305 500.41495,369.076364 486.146461,369.076364 M512,258.302556 C512,269.786446 500.41495,279.083636 486.146461,279.083636 L25.8720451,279.083636 C11.5850502,279.083636 0,269.786446 0,258.302556 L0,253.334138 C0,241.865123 11.5850502,232.538182 25.8720451,232.538182 L486.146461,232.538182 C500.41495,232.538182 512,241.865123 512,253.334138 L512,258.302556 Z" id="Fill-1-Copy" fill="#1F3A93"></path>
    </g>
</svg>