<?xml version="1.0" encoding="UTF-8"?>
<svg width="42px" height="30px" viewBox="0 0 42 30" version="1.1" xmlns="http://www.w3.org/2000/svg" xmlns:xlink="http://www.w3.org/1999/xlink">
    <!-- Generator: Sketch 51.3 (57544) - http://www.bohemiancoding.com/sketch -->
    <title>Group 9 Copy 2</title>
    <desc>Created with Sketch.</desc>
    <defs></defs>
    <g id="Mobile" stroke="none" stroke-width="1" fill="none" fill-rule="evenodd">
        <g id="Configuratore-2" transform="translate(-49.000000, -315.000000)" fill="#828282">
            <g id="Group-9-Copy-2" transform="translate(49.000000, 315.000000)">
                <polygon id="Fill-1" points="0 27.6993615 2.20592875 29.1428571 9.27729067 17.2342455 16.2873527 24.6873036 25.4390112 22.1843804 32.0544147 26.5094099 33.4285714 24.193177 25.8646445 19.2482721 17.0831679 21.6497777 8.81310122 12.8571429"></polygon>
                <path d="M0,30 L35.1428571,30 L35.1428571,6 L0,6 L0,30 Z M2.66799705,27.2830189 L32.4750824,27.2830189 L32.4750824,8.71698113 L2.66799705,8.71698113 L2.66799705,27.2830189 Z" id="Fill-2"></path>
                <polygon id="Fill-3" points="6.85714286 0 6.85714286 4.22626415 9.52513991 4.22626415 9.52513991 2.71720755 39.3320029 2.71720755 39.3320029 21.2830189 36.8905633 21.2830189 36.8905633 24 42 24 42 0"></polygon>
                <g id="Group-8" transform="translate(16.285714, 10.285714)">
                    <path d="M5.73372101,6.40744034 C4.45385546,7.84751597 2.37876303,7.84751597 1.09909916,6.40744034 C-0.180766387,4.9675916 -0.180766387,2.63311261 1.09909916,1.19349076 C2.37876303,-0.246357983 4.45385546,-0.246357983 5.73372101,1.19349076 C7.01378824,2.63311261 7.01378824,4.9675916 5.73372101,6.40744034" id="Fill-4"></path>
                </g>
            </g>
        </g>
    </g>
</svg>