<?xml version="1.0" encoding="UTF-8"?>
<svg width="51px" height="50px" viewBox="0 0 51 50" version="1.1" xmlns="http://www.w3.org/2000/svg" xmlns:xlink="http://www.w3.org/1999/xlink">
    <!-- Generator: Sketch 51.3 (57544) - http://www.bohemiancoding.com/sketch -->
    <title>Group 15</title>
    <desc>Created with Sketch.</desc>
    <defs>
        <polygon id="path-1" points="0 0.0178933456 10.6075667 0.0178933456 10.6075667 22.4132352 0 22.4132352"></polygon>
        <polygon id="path-3" points="0.0979276317 0.0197222222 8.16770455 0.0197222222 8.16770455 8.12336111 0.0979276317 8.12336111"></polygon>
    </defs>
    <g id="Mobile" stroke="none" stroke-width="1" fill="none" fill-rule="evenodd">
        <g id="Successo-carrello" transform="translate(-135.000000, -90.000000)">
            <g id="Group-15" transform="translate(135.000000, 90.000000)">
                <g id="Group-3" transform="translate(0.000000, 25.000000)">
                    <mask id="mask-2" fill="white">
                        <use xlink:href="#path-1"></use>
                    </mask>
                    <g id="Clip-2"></g>
                    <path d="M9.24662917,21.4316341 L1.75565,22.4002317 C0.824254167,22.5209634 -0.0001625,21.7855976 -0.0001625,20.8342866 L-0.0001625,1.59706098 C-0.0001625,0.64575 0.824254167,-0.0896158537 1.75565,0.0308414634 L9.24662917,0.999713415 C10.0247333,1.10041463 10.6075667,1.77129878 10.6075667,2.56593293 L10.6075667,19.8654146 C10.6075667,20.6600488 10.0247333,21.3309329 9.24662917,21.4316341" id="Fill-1" fill="#FF4F51" mask="url(#mask-2)"></path>
                </g>
                <path d="M37.8775059,47.2482174 L32.7594491,47.2482174 C31.8147266,47.2482174 31.0461153,46.4867991 31.0461153,45.5509179 C31.0461153,44.5999018 31.8125044,43.8805858 32.8369491,43.856095 C32.8963936,43.8585716 32.9550047,43.8649007 33.0152825,43.8649007 L40.4963954,43.8649007 C40.556951,44.0894461 40.5927844,44.3214214 40.5927844,44.5586251 C40.5927844,46.0415607 39.3750063,47.2482174 37.8775059,47.2482174 Z M40.1377842,38.3277637 L40.7841733,38.3277637 L40.7841733,38.2980445 C41.5944513,38.2273237 42.3705626,38.0242421 43.0894516,37.7127403 C43.1144517,37.8673905 43.1283405,38.0247925 43.1283405,38.1841207 C43.1283405,39.7991419 41.8019513,41.1131181 40.1716731,41.1131181 L33.0152825,41.1131181 C32.2402823,41.1131181 31.6097266,40.4884634 31.6097266,39.7207161 C31.6097266,38.9526936 32.2402823,38.3277637 33.0152825,38.3277637 L34.4211162,38.3277637 L40.1377842,38.3277637 Z M45.4750078,26.2050606 C44.1011186,24.7950472 42.2555626,24.0184942 40.2777843,24.0184942 L32.8702824,24.0184942 L32.8702824,14.170965 C32.8702824,10.9522048 30.2266707,8.33333333 26.9775032,8.33333333 L25.3869472,8.33333333 C24.2033358,8.33333333 23.2405578,9.28737636 23.2405578,10.4599109 L23.2405578,15.9466903 C23.2405578,21.5072174 20.9530572,22.570231 18.7408345,23.5985722 C18.2483344,23.8275205 17.7830565,24.0438106 17.3408341,24.3066058 C14.1666667,26.1929528 14.1666667,29.7078047 14.1666667,32.273842 L14.1666667,39.7207161 C14.1666667,45.8904879 16.1900005,50 26.0647252,50 L26.0647252,47.2482174 C18.3091677,47.2482174 16.9444451,44.82087 16.9444451,39.7207161 L16.9444451,32.273842 C16.9444451,29.2094569 17.2175008,27.5889321 18.7700011,26.6659842 C19.0908346,26.4755609 19.4938902,26.2881645 19.920557,26.0897609 C22.3488909,24.9612549 26.0183363,23.2559752 26.0183363,15.9466903 L26.0183363,11.0851159 L26.9775032,11.0851159 C28.6950036,11.0851159 30.092504,12.4692626 30.092504,14.170965 L30.092504,24.6946072 C30.092504,25.8390736 31.0322264,26.7702768 32.1877823,26.7702768 L40.2777843,26.7702768 C41.4944513,26.7702768 42.6305626,27.2482614 43.4761184,28.1161737 C44.3211186,28.9835355 44.7625076,30.126626 44.7191743,31.3349338 C44.6350076,33.6733986 42.5800071,35.5759811 40.1377842,35.5759811 L34.4211162,35.5759811 C33.5402826,35.5759811 32.8238935,34.8662964 32.8238935,33.9937061 C32.8238935,33.1211159 33.5402826,32.4114311 34.4211162,32.4114311 L40.2777843,32.4114311 L40.2777843,29.6596485 L34.4211162,29.6596485 C32.0086156,29.6596485 30.0461151,31.6037829 30.0461151,33.9937061 C30.0461151,34.828597 30.290004,35.6065259 30.7044486,36.26888 C29.5769483,37.0121365 28.8319481,38.2812586 28.8319481,39.7207161 C28.8319481,40.6874173 29.1702815,41.5759679 29.7327817,42.281525 C28.8294481,43.0886228 28.2683368,44.2438211 28.2683368,45.5509179 C28.2683368,48.0041321 30.2830596,50 32.7594491,50 L37.8775059,50 C40.9063955,50 43.3705628,47.5588937 43.3705628,44.5586251 C43.3705628,44.0360616 43.2938961,43.5228541 43.1488961,43.030285 C44.7988965,42.0316631 45.906119,40.236125 45.906119,38.1841207 C45.906119,37.4477436 45.7619523,36.7284277 45.4877856,36.0572679 C46.6755637,34.8335502 47.4313972,33.2105488 47.4952861,31.4326221 C47.5655639,29.4711514 46.8480637,27.6147989 45.4750078,26.2050606 Z" id="Fill-4" fill="#1F3A93"></path>
                <path d="M13.5855175,15.8333333 C13.4271422,15.8333333 13.2662217,15.8087062 13.1086949,15.7563082 L5.93769057,13.3771733 C5.20237698,13.1332603 4.8197311,12.3834437 5.08331274,11.7022687 C5.34661157,11.0213556 6.15658776,10.6658347 6.89105291,10.9107957 L14.0623401,13.2899305 C14.7973708,13.5338436 15.1802995,14.2836601 14.9167179,14.9648352 C14.7099816,15.5000815 14.1658496,15.8333333 13.5855175,15.8333333" id="Fill-6" fill="#01A89F"></path>
                <path d="M16.9982881,8.33333333 C16.6433559,8.33333333 16.2894919,8.18307393 16.0264307,7.88512611 L11.1970553,2.40808521 C10.6912301,1.8341857 10.7160673,0.930058314 11.2523382,0.388724537 C11.7891432,-0.151752247 12.6341437,-0.125471135 13.1402359,0.447857039 L17.9696114,5.92489794 C18.4754366,6.49879744 18.4505994,7.40292483 17.9143285,7.94425861 C17.6563416,8.20449875 17.3267807,8.33333333 16.9982881,8.33333333" id="Fill-8" fill="#01A89F"></path>
                <path d="M42.2478159,15.8333333 C41.6674837,15.8333333 41.1233517,15.5000469 40.9166155,14.9647448 C40.6530338,14.2834989 41.0359625,13.5336044 41.7709933,13.289666 L48.9422804,10.9102838 C49.677594,10.6666073 50.4870046,11.0208552 50.7500206,11.7018391 C51.0136022,12.383085 50.6309564,13.1329795 49.8956428,13.3769179 L42.7246384,15.7563001 C42.5671116,15.8084417 42.4061911,15.8333333 42.2478159,15.8333333" id="Fill-10" fill="#01A89F"></path>
                <g id="Group-14" transform="translate(36.666667, 0.000000)">
                    <mask id="mask-4" fill="white">
                        <use xlink:href="#path-3"></use>
                    </mask>
                    <g id="Clip-13"></g>
                    <path d="M1.53439655,8.12336111 C1.18094828,8.12336111 0.826350575,7.99808333 0.548764368,7.74502778 C-0.0282471264,7.21863889 -0.0549712644,6.33947222 0.489281609,5.78141667 L5.68554598,0.455583333 C6.23037356,-0.102194444 7.13928161,-0.128305556 7.71686782,0.398083333 C8.29387931,0.924472222 8.32060345,1.80363889 7.77635057,2.36169444 L2.58008621,7.68752778 C2.29732759,7.97725 1.9162931,8.12336111 1.53439655,8.12336111" id="Fill-12" fill="#01A89F" mask="url(#mask-4)"></path>
                </g>
            </g>
        </g>
    </g>
</svg>