<?xml version="1.0" encoding="utf-8"?>
<!-- Generator: Adobe Illustrator 23.0.0, SVG Export Plug-In . SVG Version: 6.00 Build 0)  -->
<svg version="1.1" id="Layer_1" xmlns="http://www.w3.org/2000/svg" xmlns:xlink="http://www.w3.org/1999/xlink" x="0px" y="0px"
	 viewBox="0 0 512 512" style="enable-background:new 0 0 512 512;" xml:space="preserve">
<path style="fill:#FFFFFF;" d="M175.635,61.352c0.301-0.324,0.598-0.65,0.904-0.971c1.248-1.311,2.528-2.591,3.838-3.839
	c0.321-0.306,0.647-0.602,0.971-0.903c0.329-0.306,0.656-0.615,0.989-0.917c0.44-0.4,0.886-0.79,1.331-1.181
	c0.215-0.189,0.428-0.38,0.644-0.568c0.53-0.458,1.064-0.907,1.601-1.354c0.132-0.11,0.262-0.221,0.394-0.33
	c0.601-0.496,1.207-0.982,1.816-1.462c0.069-0.055,0.138-0.11,0.208-0.165c0.663-0.521,1.331-1.032,2.003-1.535
	c0.016-0.012,0.032-0.024,0.048-0.036c4.265-3.191,8.708-6.031,13.293-8.521c0.026-0.014,0.053-0.029,0.079-0.043
	c0.725-0.393,1.453-0.777,2.185-1.153c0.094-0.048,0.189-0.096,0.283-0.145c0.664-0.338,1.33-0.67,1.999-0.993
	c0.179-0.087,0.359-0.172,0.54-0.259c0.584-0.279,1.17-0.553,1.759-0.821c0.28-0.128,0.562-0.253,0.843-0.379
	c0.492-0.219,0.984-0.436,1.479-0.647c0.388-0.166,0.778-0.329,1.169-0.491c0.39-0.161,0.779-0.322,1.17-0.478
	c0.501-0.201,1.005-0.397,1.51-0.591c0.285-0.109,0.569-0.218,0.854-0.324c0.608-0.228,1.22-0.449,1.833-0.666
	c0.186-0.066,0.371-0.132,0.557-0.196c0.704-0.245,1.412-0.482,2.122-0.713c0.099-0.032,0.197-0.064,0.295-0.096
	c0.784-0.252,1.572-0.496,2.364-0.731c0.028-0.008,0.056-0.017,0.084-0.025c5.001-1.481,10.151-2.615,15.423-3.374
	c0.022-0.003,0.045-0.006,0.068-0.01c0.83-0.119,1.661-0.229,2.497-0.33c0.087-0.01,0.175-0.02,0.262-0.03
	c0.771-0.091,1.543-0.175,2.318-0.25c0.172-0.017,0.344-0.03,0.516-0.046c0.695-0.063,1.39-0.124,2.088-0.175
	c0.281-0.021,0.563-0.035,0.845-0.053c0.596-0.039,1.191-0.078,1.79-0.107c0.445-0.022,0.89-0.034,1.335-0.051
	c0.445-0.016,0.888-0.037,1.334-0.048c1.81-0.044,3.62-0.044,5.429,0c0.446,0.011,0.89,0.031,1.334,0.048
	c0.445,0.016,0.891,0.029,1.335,0.051c0.599,0.029,1.194,0.068,1.79,0.107c0.282,0.018,0.563,0.033,0.845,0.053
	c0.698,0.051,1.394,0.111,2.088,0.175c0.172,0.016,0.344,0.029,0.516,0.046c0.775,0.075,1.548,0.159,2.319,0.25
	c0.087,0.01,0.174,0.019,0.261,0.03c0.836,0.1,1.668,0.211,2.498,0.33c0.022,0.003,0.044,0.006,0.066,0.009
	c5.271,0.759,10.421,1.893,15.422,3.374c0.029,0.009,0.058,0.017,0.087,0.026c0.791,0.235,1.578,0.478,2.362,0.73
	c0.099,0.032,0.199,0.064,0.298,0.097c0.71,0.231,1.417,0.468,2.12,0.712c0.187,0.065,0.373,0.131,0.559,0.197
	c0.613,0.217,1.224,0.438,1.833,0.666c0.285,0.107,0.57,0.216,0.855,0.325c0.504,0.194,1.007,0.389,1.508,0.59
	c0.391,0.157,0.781,0.317,1.171,0.479c0.391,0.162,0.781,0.325,1.17,0.491c0.494,0.211,0.986,0.428,1.478,0.646
	c0.281,0.125,0.562,0.25,0.842,0.378c0.588,0.268,1.175,0.542,1.759,0.821c0.18,0.086,0.361,0.172,0.541,0.259
	c0.668,0.323,1.334,0.655,1.998,0.993c0.095,0.048,0.189,0.096,0.284,0.145c0.731,0.375,1.459,0.76,2.184,1.152
	c0.027,0.015,0.054,0.029,0.081,0.044c4.583,2.489,9.026,5.328,13.291,8.519c0.018,0.013,0.036,0.027,0.054,0.04
	c0.67,0.503,1.337,1.013,1.999,1.533c0.069,0.054,0.137,0.109,0.206,0.164c0.609,0.481,1.216,0.968,1.817,1.463
	c0.133,0.11,0.264,0.222,0.397,0.332c0.535,0.445,1.068,0.893,1.597,1.35c0.22,0.19,0.436,0.384,0.654,0.576
	c0.442,0.388,0.884,0.776,1.321,1.172c0.338,0.307,0.67,0.62,1.004,0.931c0.319,0.296,0.64,0.588,0.956,0.889
	c20.988,19.979,34.07,48.188,34.07,79.453c0,60.576-49.106,109.682-109.683,109.682c-31.263,0-59.471-13.081-79.451-34.067
	c-0.311-0.326-0.612-0.657-0.918-0.986c-0.301-0.324-0.605-0.646-0.902-0.973c-0.403-0.444-0.796-0.893-1.191-1.342
	c-0.186-0.211-0.374-0.42-0.558-0.633c-0.459-0.531-0.91-1.068-1.357-1.605c-0.109-0.131-0.219-0.26-0.327-0.391
	c-0.497-0.602-0.984-1.21-1.466-1.82c-0.054-0.068-0.108-0.135-0.161-0.202c-0.521-0.664-1.033-1.332-1.537-2.004
	c-0.012-0.016-0.024-0.032-0.036-0.048c-3.191-4.265-6.031-8.709-8.521-13.293c-0.014-0.026-0.029-0.053-0.043-0.079
	c-0.393-0.725-0.777-1.453-1.153-2.185c-0.048-0.094-0.096-0.189-0.145-0.283c-0.338-0.664-0.669-1.33-0.993-1.999
	c-0.087-0.18-0.172-0.36-0.258-0.54c-0.279-0.585-0.553-1.17-0.821-1.759c-0.128-0.28-0.253-0.562-0.378-0.843
	c-0.219-0.492-0.436-0.984-0.647-1.478c-0.166-0.388-0.329-0.779-0.491-1.169c-0.161-0.39-0.322-0.78-0.479-1.171
	c-0.2-0.5-0.396-1.002-0.589-1.505c-0.11-0.287-0.22-0.574-0.328-0.862c-0.227-0.605-0.447-1.214-0.663-1.824
	c-0.066-0.189-0.134-0.377-0.199-0.566c-0.244-0.701-0.48-1.406-0.71-2.113c-0.033-0.101-0.066-0.203-0.099-0.304
	c-0.252-0.782-0.495-1.568-0.729-2.358c-0.008-0.029-0.018-0.059-0.026-0.088c-1.481-5.001-2.615-10.15-3.374-15.421
	c-0.003-0.023-0.006-0.045-0.01-0.068c-0.119-0.829-0.229-1.661-0.33-2.497c-0.011-0.087-0.02-0.175-0.03-0.262
	c-0.09-0.771-0.175-1.543-0.25-2.318c-0.017-0.172-0.03-0.344-0.046-0.515c-0.063-0.695-0.125-1.39-0.175-2.088
	c-0.021-0.282-0.035-0.563-0.054-0.845c-0.038-0.596-0.078-1.191-0.106-1.789c-0.022-0.445-0.035-0.89-0.051-1.336
	c-0.017-0.445-0.037-0.888-0.048-1.334c-0.044-1.81-0.044-3.62,0-5.43c0.011-0.446,0.031-0.89,0.048-1.334
	c0.016-0.445,0.029-0.891,0.051-1.336c0.029-0.598,0.068-1.193,0.106-1.789c0.019-0.282,0.033-0.563,0.054-0.845
	c0.05-0.698,0.111-1.394,0.175-2.088c0.016-0.172,0.029-0.344,0.046-0.515c0.074-0.776,0.159-1.548,0.25-2.319
	c0.01-0.087,0.019-0.174,0.03-0.261c0.1-0.836,0.211-1.668,0.33-2.498c0.003-0.022,0.006-0.044,0.009-0.066
	c0.759-5.271,1.893-10.42,3.374-15.421c0.009-0.03,0.018-0.061,0.027-0.091c0.234-0.789,0.477-1.574,0.729-2.355
	c0.033-0.103,0.066-0.205,0.1-0.307c0.229-0.707,0.465-1.41,0.709-2.111c0.066-0.19,0.133-0.379,0.2-0.568
	c0.216-0.61,0.436-1.218,0.663-1.823c0.107-0.288,0.218-0.576,0.328-0.863c0.193-0.502,0.388-1.004,0.588-1.503
	c0.157-0.392,0.318-0.782,0.479-1.172c0.162-0.391,0.325-0.781,0.491-1.17c0.211-0.494,0.428-0.986,0.646-1.478
	c0.125-0.281,0.25-0.562,0.378-0.842c0.268-0.588,0.542-1.175,0.821-1.759c0.086-0.181,0.172-0.361,0.259-0.541
	c0.324-0.669,0.655-1.334,0.993-1.998c0.048-0.094,0.096-0.189,0.145-0.284c0.375-0.731,0.76-1.459,1.152-2.184
	c0.015-0.027,0.029-0.054,0.044-0.081c2.489-4.583,5.328-9.026,8.519-13.29c0.013-0.018,0.027-0.036,0.041-0.053
	c0.503-0.671,1.014-1.339,1.534-2.001c0.053-0.067,0.106-0.134,0.159-0.201c0.482-0.611,0.97-1.218,1.467-1.821
	c0.109-0.132,0.22-0.262,0.33-0.394c0.447-0.536,0.896-1.071,1.354-1.601c0.187-0.216,0.378-0.428,0.566-0.643
	c0.392-0.446,0.782-0.892,1.182-1.332C175.021,62.008,175.329,61.681,175.635,61.352z M255.989,304.423
	C150.826,304.423,52.737,361.021,0,452.128l57.927,33.528c40.804-70.508,116.699-114.308,198.062-114.308
	c81.379,0,157.279,43.81,198.083,114.341L512,452.171C459.274,361.037,361.174,304.423,255.989,304.423z"/>
</svg>
